<svg aria-hidden="true" style="position:absolute;width:0;height:0;overflow:hidden" xmlns="http://www.w3.org/2000/svg">
    <defs>
        <symbol id="tel" viewBox="0 0 32 32">
            <path d="M16 0C7.164 0 0 7.164 0 16s7.164 16 16 16 16-7.164 16-16S24.836 0 16 0zm4.303 24.245c-2.12-.131-6.289-2.565-8.232-4.752-1.937-2.188-3.861-6.617-3.735-8.741 0 0 2.309-3.055 3.369-2.993 1.068.064 4.057 3.435 2.927 4.437-1.12.996-2.183.935-2.245 1.992-.06 1.06.935 2.188 1.927 3.311 1.003 1.128 1.997 2.247 3.06 2.307 1.06.067 1.125-.991 2.245-1.993 1.125-.997 4.12 2.379 4.055 3.439-.059 1.056-3.371 2.995-3.371 2.995z"/>
        </symbol>
        <symbol id="mail" viewBox="0 0 32 32">
            <path d="M16 0C7.161 0 0 7.164 0 16c0 8.839 7.161 16 16 16 8.835 0 16-7.161 16-16 0-8.836-7.165-16-16-16zm9.569 9.371.023.004-8.929 8.931a.814.814 0 0 1-1.121-.003L6.609 9.371H25.57zm-19.584.598c0-.007.004-.011.004-.011l6.068 6.065-6.072 6.072V9.968zm.598 12.828c-.027 0-.052-.013-.079-.017l6.155-6.153 2.279 2.279c.308.311.724.48 1.165.48.437 0 .853-.169 1.161-.48l2.204-2.205 6.096 6.097H6.583zm19.585-.602-6.096-6.096 6.096-6.096v12.192z"/>
        </symbol>
        <svg id="bottom-arrow" viewBox="0 0 15 19" fill="none">
            <path d="M7.4999 9.76324e-05L7.4999 17.6001" stroke="white" stroke-miterlimit="10"/>
            <path d="M0.999902 11.6L7.50045 18L13.9999 11.6" stroke="white" stroke-miterlimit="10"/>
        </svg>
        <symbol id="left-arrow" viewBox="0 0 9 14" fill="none">
            <path d="M8 13L2 7.00156L8 1" stroke="#0061D9" stroke-width="2" stroke-miterlimit="10"/>
        </symbol>
        <symbol id="right-arrow" viewBox="0 0 9 14" fill="none">
            <path d="M1.2207 0.999999L7.2207 6.99844L1.2207 13" stroke="#0061D9" stroke-width="2" stroke-miterlimit="10"/>
        </symbol>

    </defs>
</svg>